/* XPM */
static char *cat_0[] = {
/* columns rows colors chars-per-pixel */
"100 100 9 1 ",
"  c black",
". c #001E1E11",
"X c #00757A7B",
"o c #008C3B4E",
"O c #0087959C",
"+ c #00FFDABC",
"@ c #00BCCCDC",
"# c #00E5F9FF",
"$ c #00000000",
/* pixels */
"$$$$$$$$$$$$$$$$$$$$$$$$$$$$$$$$$$$$$$$$$$$$$$$$$$$$$$$$$$$$$$$$$$$$$$$$$$$$$$$$$$$$$$$$$$$$$$$$$$$$",
"$$$$$$$$$$$$$$$$$$$$$$$$$$$$$$$$$$$$$$$$$$$$$$$$$$$$$$$$$$$$$$$$$$$$$$$$$$$$$$$$$$$$$$$$$$$$$$$$$$$$",
"$$$$$$$$$$$$$$$$$$$$$$$$$$$$$$$$$$$$$$$$$$$$$$$$$$$$$$$$$$$$$$$$$$$$$$$$$$$$$$$$$$$$$$$$$$$$$$$$$$$$",
"$$$$$$$$$$$$$$$$$$$$$$$$$$$$$$$$$$$$$$$$$$$$$$$$$$$$$$$$$$$$$$$$$$$$$$$$$$$$$$$$$$$$$$$$$$$$$$$$$$$$",
"$$$$$$$$$$$$$$$$$$$$$$$$$$$$$$$$$$$$$$$$$$$$$$$$$$$$$$$$$$$$$$$$$$$$$$$$$$$$$$$$$$$$$$$$$$$$$$$$$$$$",
"$$$$$$$$$$$$$$$$$$$$$$$$$$$$$$$$$$$$$$$$$$$$$$$$$$$$$$$$$$$$$$$$$$$$$$$$$$$$$$$$$$$$$$$$$$$$$$$$$$$$",
"$$$$$$$$$$$$$$$$$$$$$$$$$$$$$$$$$$$$$$$$$$$$$$$$$$$$$$$$$$$$$$$$$$$$$$$$$$$$$$$$$$$$$$$$$$$$$$$$$$$$",
"$$$$$$$$$$$$$$$$$$$$$$$$$$$$$$$$$$$$$$$$$$$$$$$$$$$$$$$$$$$$$$$$$$$$$$$$$$$$$$$$$$$$$$$$$$$$$$$$$$$$",
"$$$$$$$$$$$$$$$$$$$$$$$$$$$$$$$$$$$$$$$$$$$$$$$$$$$$$$$$$$$$$$$$$$$$$$$$$$$$$$$$$$$$$$$$$$$$$$$$$$$$",
"$$$$$$$$$$$$$$$$$$$$$$$$$$$$$$$$$$$$$$$$$$$$$$$$$$$$$$$$$$$$$$$$$$$$$$$$$$$$$$$$$$$$$$$$$$$$$$$$$$$$",
"$$$$$$$$$$$$$$$$$$$$$$$$$$$$$$$$$$$$$$$$$$$$$$$$$$$$$$$$$$$$$$$$$$$$$$$$$$$$$$$$$$$$$$$$$$$$$$$$$$$$",
"$$$$$$$$$$$$$$$$$$$$$$$$$$$$$$$$$$$$$$$$$$$$$$$$$$$$$$$$$$$$$$$$$$$$$$$$$$$$$$$$$$$$$$$$$$$$$$$$$$$$",
"$$$$$$$$$$$$$$$$$$$$$$$$$$$$$$$$$$$$$$$$$$$$$$$$$$$$$$$$$$$$$$$$$$$$$$$$$$$$$$$$$$$$$$$$$$$$$$$$$$$$",
"$$$$$$$$$$$$$$$$$$$$$$$$$$$$$$$$$$$$$$$$$$$$$$$$$$$$$$$$$$$$$$$$$$$$$$$$$$$$$$$$$$$$$$$$$$$$$$$$$$$$",
"$$$$$$$$$$$$$$$$$$$$$$$$$$$$$$$$$$$$$$$$$$$$$$$$$$$$$$$$$$$$$$$$$$$$$$$$$$$$$$$$$$$$$$$$$$$$$$$$$$$$",
"$$$$$$$$$$$$$$$$$$$$$$$$$$$$$$$$$$$$$$$$$$$$$$$$$$$$$$$$$$$$$$$$$$$$$$$$$$$$$$$$$$$$$$$$$$$$$$$$$$$$",
"$$$$$$$$$$$$$$$$$$$$$$$$$$$$$$$$$$$$$$$$$$$$$$$$$$$$$$$$$$$$$$$$$$$$$$$$$$$$$$$$$$$$$$$$$$$$$$$$$$$$",
"$$$$$$$$$$$$$$$$$$$$$$$$$$$$$$$$$$$$$$$$$$$$$$$$$$$$$$$$$$$$$$$$$$$$$$$$$$$$$$$$$$$$$$$$$$$$$$$$$$$$",
"$$$$$$$$$$$$$$$$$$$$$$$$$$$$$$$$$$$$$$$$$$$$$$$$$$$$$$$$$$$$$$$$$$$$$$$$$$$$$$$$$$$$$$$$$$$$$$$$$$$$",
"$$$$$$$$$$$$$$$$$$$$$$$$$$$$$$$$$$$$$$$$$$$$$$$$$$$$$$$$$$$$$$$$$$$$$$$$$$$$$$$$$$$$$$$$$$$$$$$$$$$$",
"$$$$$$$$$$$$$$$$$$$$$$$$$$$$$$$$$$$$$$$$$$$$$$$$$$     $$$$$$$$$$$$$$$$$$$$$$$$$     $$$$$$$$$$$$$$$",
"$$$$$$$$$$$$$$$$$$$$$$$$$$$$$$$$$$$$$$$$$$$$$$$$$$     $$$$$$$$$$$$$$$$$$$$$$$$$     $$$$$$$$$$$$$$$",
"$$$$$$$$$$$$$$$$$$$$$$$$$$$$$$$$$$$$$$$$$$$$$$$$$$     $$$$$$$$$$$$$$$$$$$$$$$$$     $$$$$$$$$$$$$$$",
"$$$$$$$$$$$$$$$$$$$$$$$$$$$$$$$$$$$$$$$$$$$$$$$$$$     $$$$$$$$$$$$$$$$$$$$$$$$$     $$$$$$$$$$$$$$$",
"$$$$$$$$$$$$$$$$$$$$$$$$$$$$$$$$$$$$$$$$$$$$$$$$$$     $$$$$$$$$$$$$$$$$$$$$$$$$     $$$$$$$$$$$$$$$",
"$$$$$$$$$$$$$$$$$$$$$$$$$$$$$$$$$$$$$$$$$$$$$     XXXXX     $$$$$$$$$$$$$$$     #####     $$$$$$$$$$",
"$$$$$$$$$$$$$$$$$$$$$$$$$$$$$$$$$$$$$$$$$$$$$     XXXXX     $$$$$$$$$$$$$$$     #####     $$$$$$$$$$",
"$$$$$$$$$$$$$$$$$$$$$$$$$$$$$$$$$$$$$$$$$$$$$     XXXXX     $$$$$$$$$$$$$$$     #####     $$$$$$$$$$",
"$$$$$$$$$$$$$$$$$$$$$$$$$$$$$$$$$$$$$$$$$$$$$     XXXXX     $$$$$$$$$$$$$$$     #####     $$$$$$$$$$",
"$$$$$$$$$$$$$$$$$$$$$$$$$$$$$$$$$$$$$$$$$$$$$     XXXXX     $$$$$$$$$$$$$$$     #####     $$$$$$$$$$",
"$$$$$$$$$$$$$$$$$$$$$$$$$$$$$$$$$$$$$$$$     XXXXX+++++XXXXX               #####+++++     $$$$$$$$$$",
"$$$$$$$$$$$$$$$$$$$$$$$$$$$$$$$$$$$$$$$$     XXXXX+++++XXXXX               #####+++++     $$$$$$$$$$",
"$$$$$$$$$$$$$$$$$$$$$$$$$$$$$$$$$$$$$$$$     XXXXX+++++XXXXX               #####+++++     $$$$$$$$$$",
"$$$$$$$$$$$$$$$$$$$$$$$$$$$$$$$$$$$$$$$$     XXXXX+++++XXXXX               #####+++++     $$$$$$$$$$",
"$$$$$$$$$$$$$$$$$$$$$$$$$$$$$$$$$$$$$$$$     XXXXX+++++XXXXX               #####+++++     $$$$$$$$$$",
"$$$$$$$$$$$$$$$$$$$$$$$$$$$$$$$$$$$$$$$$     XXXXXXXXXXXXXXX##########XXXXXXXXXXXXXXX     $$$$$$$$$$",
"$$$$$$$$$$$$$$$$$$$$$$$$$$$$$$$$$$$$$$$$     XXXXXXXXXXXXXXX##########XXXXXXXXXXXXXXX     $$$$$$$$$$",
"$$$$$$$$$$$$$$$$$$$$$$$$$$$$$$$$$$$$$$$$     XXXXXXXXXXXXXXX##########XXXXXXXXXXXXXXX     $$$$$$$$$$",
"$$$$$$$$$$$$$$$$$$$$$$$$$$$$$$$$$$$$$$$$     XXXXXXXXXXXXXXX##########XXXXXXXXXXXXXXX     $$$$$$$$$$",
"$$$$$$$$$$$$$$$$$$$$$$$$$$$$$$$$$$$$$$$$     XXXXXXXXXXXXXXX##########XXXXXXXXXXXXXXX     $$$$$$$$$$",
"$$$$$$$$$$$$$$$$$$$$$$$$$$$$$$$$$$$$$$$$     XXXXXXXXXX###############XXXXXXXXXXXXXXX     $$$$$$$$$$",
"$$$$$$$$$$$$$$$$$$$$$$$$$$$$$$$$$$$$$$$$     XXXXXXXXXX###############XXXXXXXXXXXXXXX     $$$$$$$$$$",
"$$$$$$$$$$$$$$$$$$$$$$$$$$$$$$$$$$$$$$$$     XXXXXXXXXX###############XXXXXXXXXXXXXXX     $$$$$$$$$$",
"$$$$$$$$$$$$$$$$$$$$$$$$$$$$$$$$$$$$$$$$     XXXXXXXXXX###############XXXXXXXXXXXXXXX     $$$$$$$$$$",
"$$$$$$$$$$$$$$$$$$$$$$$$$$$$$$$$$$$$$$$$     XXXXXXXXXX###############XXXXXXXXXXXXXXX     $$$$$$$$$$",
"$$$$$$$$$$$$$$$$$$$$     $$$$$$$$$$     ###############XXXXXXXXXX##########XXXXXXXXXXXXXXX     $$$$$",
"$$$$$$$$$$$$$$$$$$$$     $$$$$$$$$$     ###############XXXXXXXXXX##########XXXXXXXXXXXXXXX     $$$$$",
"$$$$$$$$$$$$$$$$$$$$     $$$$$$$$$$     ###############XXXXXXXXXX##########XXXXXXXXXXXXXXX     $$$$$",
"$$$$$$$$$$$$$$$$$$$$     $$$$$$$$$$     ###############XXXXXXXXXX##########XXXXXXXXXXXXXXX     $$$$$",
"$$$$$$$$$$$$$$$$$$$$     $$$$$$$$$$     ###############XXXXXXXXXX##########XXXXXXXXXXXXXXX     $$$$$",
"$$$$$$$$$$$$$$$     XXXXX     $$$$$     ##########XXXXXXXXXX.....XXXXX##########.....XXXXX     $$$$$",
"$$$$$$$$$$$$$$$     XXXXX     $$$$$     ##########XXXXXXXXXX.....XXXXX##########.....XXXXX     $$$$$",
"$$$$$$$$$$$$$$$     XXXXX     $$$$$     ##########XXXXXXXXXX.....XXXXX##########.....XXXXX     $$$$$",
"$$$$$$$$$$$$$$$     XXXXX     $$$$$     ##########XXXXXXXXXX.....XXXXX##########.....XXXXX     $$$$$",
"$$$$$$$$$$$$$$$     XXXXX     $$$$$     ##########XXXXXXXXXX.....XXXXX##########.....XXXXX     $$$$$",
"$$$$$$$$$$     #####     $$$$$          ##########XXXXXXXXXX.....XXXXX##########.....#####     $$$$$",
"$$$$$$$$$$     #####     $$$$$          ##########XXXXXXXXXX.....XXXXX##########.....#####     $$$$$",
"$$$$$$$$$$     #####     $$$$$          ##########XXXXXXXXXX.....XXXXX##########.....#####     $$$$$",
"$$$$$$$$$$     #####     $$$$$          ##########XXXXXXXXXX.....XXXXX##########.....#####     $$$$$",
"$$$$$$$$$$     #####     $$$$$          ##########XXXXXXXXXX.....XXXXX##########.....#####     $$$$$",
"$$$$$$$$$$     #####          ##########@@@@@##########XXXXXXXXXX#####ooooo##########     $$$$$$$$$$",
"$$$$$$$$$$     #####          ##########@@@@@##########XXXXXXXXXX#####ooooo##########     $$$$$$$$$$",
"$$$$$$$$$$     #####          ##########@@@@@##########XXXXXXXXXX#####ooooo##########     $$$$$$$$$$",
"$$$$$$$$$$     #####          ##########@@@@@##########XXXXXXXXXX#####ooooo##########     $$$$$$$$$$",
"$$$$$$$$$$     #####          ##########@@@@@##########XXXXXXXXXX#####ooooo##########     $$$$$$$$$$",
"$$$$$$$$$$$$$$$     @@@@@@@@@@##########@@@@@@@@@@##############################     $$$$$$$$$$$$$$$",
"$$$$$$$$$$$$$$$     @@@@@@@@@@##########@@@@@@@@@@##############################     $$$$$$$$$$$$$$$",
"$$$$$$$$$$$$$$$     @@@@@@@@@@##########@@@@@@@@@@##############################     $$$$$$$$$$$$$$$",
"$$$$$$$$$$$$$$$     @@@@@@@@@@##########@@@@@@@@@@##############################     $$$$$$$$$$$$$$$",
"$$$$$$$$$$$$$$$     @@@@@@@@@@##########@@@@@@@@@@##############################     $$$$$$$$$$$$$$$",
"$$$$$$$$$$$$$$$$$$$$     @@@@@@@@@@##########@@@@@@@@@@@@@@@@@@@@@@@@@@@@@@     $$$$$$$$$$$$$$$$$$$$",
"$$$$$$$$$$$$$$$$$$$$     @@@@@@@@@@##########@@@@@@@@@@@@@@@@@@@@@@@@@@@@@@     $$$$$$$$$$$$$$$$$$$$",
"$$$$$$$$$$$$$$$$$$$$     @@@@@@@@@@##########@@@@@@@@@@@@@@@@@@@@@@@@@@@@@@     $$$$$$$$$$$$$$$$$$$$",
"$$$$$$$$$$$$$$$$$$$$     @@@@@@@@@@##########@@@@@@@@@@@@@@@@@@@@@@@@@@@@@@     $$$$$$$$$$$$$$$$$$$$",
"$$$$$$$$$$$$$$$$$$$$     @@@@@@@@@@##########@@@@@@@@@@@@@@@@@@@@@@@@@@@@@@     $$$$$$$$$$$$$$$$$$$$",
"$$$$$$$$$$$$$$$$$$$$$$$$$     @@@@@@@@@@@@@@@@@@@@@@@@@@@@@@@@@@@@@@@@@@@@@     $$$$$$$$$$$$$$$$$$$$",
"$$$$$$$$$$$$$$$$$$$$$$$$$     @@@@@@@@@@@@@@@@@@@@@@@@@@@@@@@@@@@@@@@@@@@@@     $$$$$$$$$$$$$$$$$$$$",
"$$$$$$$$$$$$$$$$$$$$$$$$$     @@@@@@@@@@@@@@@@@@@@@@@@@@@@@@@@@@@@@@@@@@@@@     $$$$$$$$$$$$$$$$$$$$",
"$$$$$$$$$$$$$$$$$$$$$$$$$     @@@@@@@@@@@@@@@@@@@@@@@@@@@@@@@@@@@@@@@@@@@@@     $$$$$$$$$$$$$$$$$$$$",
"$$$$$$$$$$$$$$$$$$$$$$$$$     @@@@@@@@@@@@@@@@@@@@@@@@@@@@@@@@@@@@@@@@@@@@@     $$$$$$$$$$$$$$$$$$$$",
"$$$$$$$$$$$$$$$$$$$$$$$$$     @@@@@@@@@@@@@@@@@@@@@@@@@@@@@@@@@@@@@@@@     $$$$$$$$$$$$$$$$$$$$$$$$$",
"$$$$$$$$$$$$$$$$$$$$$$$$$     @@@@@@@@@@@@@@@@@@@@@@@@@@@@@@@@@@@@@@@@     $$$$$$$$$$$$$$$$$$$$$$$$$",
"$$$$$$$$$$$$$$$$$$$$$$$$$     @@@@@@@@@@@@@@@@@@@@@@@@@@@@@@@@@@@@@@@@     $$$$$$$$$$$$$$$$$$$$$$$$$",
"$$$$$$$$$$$$$$$$$$$$$$$$$     @@@@@@@@@@@@@@@@@@@@@@@@@@@@@@@@@@@@@@@@     $$$$$$$$$$$$$$$$$$$$$$$$$",
"$$$$$$$$$$$$$$$$$$$$$$$$$     @@@@@@@@@@@@@@@@@@@@@@@@@@@@@@@@@@@@@@@@     $$$$$$$$$$$$$$$$$$$$$$$$$",
"$$$$$$$$$$$$$$$$$$$$$$$$$     @@@@@     OOOOO          @@@@@     OOOOO     $$$$$$$$$$$$$$$$$$$$$$$$$",
"$$$$$$$$$$$$$$$$$$$$$$$$$     @@@@@     OOOOO          @@@@@     OOOOO     $$$$$$$$$$$$$$$$$$$$$$$$$",
"$$$$$$$$$$$$$$$$$$$$$$$$$     @@@@@     OOOOO          @@@@@     OOOOO     $$$$$$$$$$$$$$$$$$$$$$$$$",
"$$$$$$$$$$$$$$$$$$$$$$$$$     @@@@@     OOOOO          @@@@@     OOOOO     $$$$$$$$$$$$$$$$$$$$$$$$$",
"$$$$$$$$$$$$$$$$$$$$$$$$$     @@@@@     OOOOO          @@@@@     OOOOO     $$$$$$$$$$$$$$$$$$$$$$$$$",
"$$$$$$$$$$$$$$$$$$$$$$$$$     @@@@@     OOOOO          @@@@@     OOOOO     $$$$$$$$$$$$$$$$$$$$$$$$$",
"$$$$$$$$$$$$$$$$$$$$$$$$$     @@@@@     OOOOO          @@@@@     OOOOO     $$$$$$$$$$$$$$$$$$$$$$$$$",
"$$$$$$$$$$$$$$$$$$$$$$$$$     @@@@@     OOOOO          @@@@@     OOOOO     $$$$$$$$$$$$$$$$$$$$$$$$$",
"$$$$$$$$$$$$$$$$$$$$$$$$$     @@@@@     OOOOO          @@@@@     OOOOO     $$$$$$$$$$$$$$$$$$$$$$$$$",
"$$$$$$$$$$$$$$$$$$$$$$$$$     @@@@@     OOOOO          @@@@@     OOOOO     $$$$$$$$$$$$$$$$$$$$$$$$$",
"$$$$$$$$$$$$$$$$$$$$$$$$$$$$$$     $$$$$     $$$$$$$$$$     $$$$$     $$$$$$$$$$$$$$$$$$$$$$$$$$$$$$",
"$$$$$$$$$$$$$$$$$$$$$$$$$$$$$$     $$$$$     $$$$$$$$$$     $$$$$     $$$$$$$$$$$$$$$$$$$$$$$$$$$$$$",
"$$$$$$$$$$$$$$$$$$$$$$$$$$$$$$     $$$$$     $$$$$$$$$$     $$$$$     $$$$$$$$$$$$$$$$$$$$$$$$$$$$$$",
"$$$$$$$$$$$$$$$$$$$$$$$$$$$$$$     $$$$$     $$$$$$$$$$     $$$$$     $$$$$$$$$$$$$$$$$$$$$$$$$$$$$$",
"$$$$$$$$$$$$$$$$$$$$$$$$$$$$$$     $$$$$     $$$$$$$$$$     $$$$$     $$$$$$$$$$$$$$$$$$$$$$$$$$$$$$"
};
